<svg width="56" height="57" viewBox="0 0 56 57" fill="none" xmlns="http://www.w3.org/2000/svg">
<path fill-rule="evenodd" clip-rule="evenodd" d="M7.84939 14.1826C7.67734 10.4253 9.44654 8.27485 11.5301 7.52734C13.5961 6.78612 16.1059 7.36328 17.7503 9.35068L15.8639 11.2384C15.4347 11.668 15.4347 12.3645 15.8639 12.7941C16.2932 13.2237 16.9892 13.2237 17.4185 12.7941L21.8153 8.39404C22.2446 7.96446 22.2446 7.26797 21.8153 6.83839C21.3861 6.40881 20.6901 6.40881 20.2608 6.83839L18.7904 8.30986C16.7525 5.93326 13.6472 5.20972 11.0355 6.1467C8.26824 7.1395 6.19349 9.93292 6.38452 14.2326C6.38296 18.4276 6.38144 24.8827 6.3816 29.6164H5.64902C5.04194 29.6164 4.5498 30.1089 4.5498 30.7164C4.5498 31.3239 5.04194 31.8164 5.64902 31.8164H6.3838C6.42538 35.5684 7.09935 38.479 8.31472 40.7279C9.57599 43.0617 11.3933 44.6322 13.5765 45.6856C13.6575 45.7247 13.739 45.7631 13.8209 45.8007L11.33 49.5397C10.9933 50.0452 11.1298 50.7282 11.6349 51.0652C12.14 51.4021 12.8225 51.2656 13.1592 50.7601L15.9341 46.5948C17.5003 47.07 19.1901 47.3644 20.9497 47.5542C23.5896 47.8391 26.436 47.8928 29.3105 47.947L29.4532 47.9497C34.2402 48.04 37.9585 47.5581 40.8335 46.6477L43.5732 50.7601C43.9099 51.2656 44.5924 51.4021 45.0975 51.0652C45.6026 50.7282 45.7391 50.0452 45.4024 49.5397L42.9377 45.84C44.8505 44.959 46.2837 43.8391 47.3451 42.5493C49.9988 39.3247 50.1591 35.2268 50.0042 31.8164H50.3506C50.9577 31.8164 51.4498 31.3239 51.4498 30.7164C51.4498 30.1089 50.9577 29.6164 50.3506 29.6164H7.84722C7.84707 24.8767 7.84859 18.4109 7.85016 14.2165L7.85016 14.1995L7.84939 14.1826ZM9.60388 40.0302C8.53542 38.0532 7.89106 35.4001 7.84952 31.8164H48.5369C48.6942 35.2034 48.5096 38.8272 46.2138 41.6169C43.8608 44.4761 39.1055 46.665 29.4808 46.4832L29.3733 46.4812C26.4723 46.4265 23.6815 46.3738 21.1068 46.096C18.5006 45.8148 16.1669 45.3073 14.2131 44.3645C12.2741 43.429 10.7019 42.0618 9.60388 40.0302Z" fill="#444444"/>
<path d="M23.6122 10.0762C23.8984 10.3627 23.8984 10.8272 23.6122 11.1136C23.3259 11.4001 22.8617 11.4001 22.5754 11.1136C22.2891 10.8272 22.3162 9.81681 22.3162 9.81681C22.3162 9.81681 23.3259 9.78969 23.6122 10.0762Z" fill="#444444"/>
<path d="M22.0581 12.6692C22.3444 12.3828 22.3444 11.9183 22.0581 11.6318C21.7718 11.3453 20.7622 11.3724 20.7622 11.3724C20.7622 11.3724 20.7351 12.3828 21.0214 12.6692C21.3076 12.9557 21.7718 12.9557 22.0581 12.6692Z" fill="#444444"/>
<path d="M20.5027 14.2249C20.7889 13.9384 20.7889 13.474 20.5027 13.1875C20.2164 12.901 19.2068 12.9281 19.2068 12.9281C19.2068 12.9281 19.1797 13.9384 19.4659 14.2249C19.7522 14.5114 20.2164 14.5114 20.5027 14.2249Z" fill="#444444"/>
<path d="M24.6484 13.1878C24.9347 12.9014 24.9347 12.4369 24.6484 12.1504C24.3621 11.8639 23.3525 11.891 23.3525 11.891C23.3525 11.891 23.3254 12.9014 23.6117 13.1878C23.898 13.4743 24.3621 13.4743 24.6484 13.1878Z" fill="#444444"/>
<path d="M26.2032 10.5947C26.4894 10.8812 26.4894 11.3457 26.2032 11.6322C25.9169 11.9186 25.4527 11.9186 25.1664 11.6322C24.8802 11.3457 24.9073 10.3353 24.9073 10.3353C24.9073 10.3353 25.9169 10.3082 26.2032 10.5947Z" fill="#444444"/>
<path d="M23.0944 14.7435C23.3806 14.457 23.3806 13.9925 23.0944 13.7061C22.8081 13.4196 21.7985 13.4467 21.7985 13.4467C21.7985 13.4467 21.7713 14.457 22.0576 14.7435C22.3439 15.03 22.8081 15.03 23.0944 14.7435Z" fill="#444444"/>
<path d="M21.5396 15.2617C21.8259 15.5482 21.8259 16.0126 21.5396 16.2991C21.2533 16.5856 20.7892 16.5856 20.5029 16.2991C20.2166 16.0126 20.2437 15.0023 20.2437 15.0023C20.2437 15.0023 21.2533 14.9752 21.5396 15.2617Z" fill="#444444"/>
</svg>
