<?xml version="1.0" encoding="utf-8"?>
<!-- Generator: Adobe Illustrator 28.1.0, SVG Export Plug-In . SVG Version: 6.00 Build 0)  -->
<svg version="1.1" id="Layer_1" xmlns="http://www.w3.org/2000/svg" xmlns:xlink="http://www.w3.org/1999/xlink" x="0px" y="0px"
	 viewBox="0 0 200 200" style="enable-background:new 0 0 200 200;" xml:space="preserve">
<style type="text/css">
	.st0{fill:#444444;}
</style>
<g id="outline_create">
	<g>
		<path class="st0" d="M6.5,59.3l20.2-5c1.6-0.4,3.3,0.5,3.9,2.1l2.5,7.6c0.6,1.7-0.4,3.6-2.1,4.1c0,0,0,0-0.1,0L11,75.8
			c-1.7,0.7-2.5,2.5-1.8,4.2c0.4,0.9,1.2,1.7,2.1,1.9l20.2,5.8c2.2,0.6,4.5,0.7,6.7,0.1l10.5-2.6c0.7-0.2,1.4-0.6,1.8-1.2l7.1-9.5
			v27.1c0,8.3,5.2,15.6,13,18.4v69.4h6.5v-68.3H87v-6.5h-9.8c-7.2,0-13-5.8-13-13V72.4h58.5v6.7c-11.7,1.3-21.2,9.9-23.7,21.4
			l-2.3,10.2l6.3,1.4l2.3-10.2c2.1-9.7,10.7-16.5,20.6-16.5c1.8,0,3.3-1.5,3.3-3.3v-13c0-1.8-1.5-3.3-3.3-3.3h-13
			c-5.4,0-9.8-4.4-9.8-9.8v-3.3h16.3v6.5h6.5v-6.5h9.8c5.4,0,9.8,4.4,9.8,9.8v25.1l-12.7,28.8c-0.2,0.4-0.3,0.9-0.3,1.3v71.5h6.5
			v-70.8l12.7-28.8c0.2-0.4,0.3-0.9,0.3-1.3V72.4h2.8l13.4,3.8c9.3,5.4,21.2,2.3,26.7-7c5.4-9.3,2.3-21.2-7-26.7
			c-6.1-3.6-13.6-3.6-19.7,0l-13.4,3.8h-14.4c1.2-2,1.8-4.2,1.8-6.5V23.6c0-7.1-5.7-13-12.9-13c-3.8,0-7.4,1.6-9.9,4.5
			c-4.6-5.4-12.7-6-18.1-1.4c-0.5,0.4-1,0.9-1.4,1.4c-4.6-5.4-12.7-6-18.1-1.4c-0.5,0.4-1,0.9-1.4,1.4c-4.7-5.4-12.8-6-18.3-1.4
			c-2.9,2.5-4.5,6.1-4.5,9.9v16.3c0,2.3,0.6,4.5,1.8,6.5h-3.4l-4.9-6.5c-3.1-4.1-7.9-6.5-13-6.5H25c-2.9,0-5.6,1.3-7.5,3.5L3.2,54
			c-1.1,1.4-1,3.4,0.4,4.6C4.4,59.3,5.5,59.5,6.5,59.3L6.5,59.3z M191,59.4c0,7-5.6,12.8-12.7,13l-7.5-2.2c-6-4-7.6-12-3.7-18
			c1-1.4,2.2-2.7,3.7-3.7l7.5-2.2C185.3,46.6,191,52.3,191,59.4z M155.2,52.9c0.3,0,0.6,0,0.9-0.1l4-1.1c-2.2,4.9-2.2,10.6,0,15.5
			l-4-1.1c-0.3-0.1-0.6-0.1-0.9-0.1H152v-3.3c0-3.5-1.2-7-3.3-9.8H155.2z M129.2,17.1c3.6,0,6.5,2.9,6.5,6.5v16.3
			c0,3.6-2.9,6.5-6.5,6.5c-3.6,0-6.5-2.9-6.5-6.5V23.6C122.7,20,125.6,17.1,129.2,17.1z M109.7,17.1c3.6,0,6.5,2.9,6.5,6.5v16.3
			c0,3.6-2.9,6.5-6.5,6.5s-6.5-2.9-6.5-6.5V23.6C103.2,20,106.1,17.1,109.7,17.1z M90.2,17.1c3.6,0,6.5,2.9,6.5,6.5v16.3
			c0,3.6-2.9,6.5-6.5,6.5s-6.5-2.9-6.5-6.5V23.6C83.7,20,86.6,17.1,90.2,17.1z M64.2,39.9V23.6c0-3.6,2.9-6.5,6.5-6.5
			s6.5,2.9,6.5,6.5v16.3c0,3.6-2.9,6.5-6.5,6.5S64.2,43.5,64.2,39.9z M22.5,41c0.6-0.7,1.5-1.2,2.5-1.2h13.2c3.1,0,6,1.5,7.8,3.9
			l5.9,7.8c0.6,0.8,1.6,1.3,2.6,1.3h42.3v3.3c0,3.5,1.2,7,3.3,9.8H57.7c-1,0-2,0.5-2.6,1.3l-9.1,12.1l-9.3,2.3
			c-1.1,0.3-2.3,0.3-3.4-0.1l-10.9-3.1l10.7-4.1c5.1-1.7,7.9-7.2,6.2-12.3c0,0,0,0,0,0l-2.5-7.6c-1.6-4.8-6.7-7.6-11.6-6.4
			l-10.5,2.6L22.5,41z"/>
		<path class="st0" d="M178,52.9c-3.6,0-6.5,2.9-6.5,6.5s2.9,6.5,6.5,6.5c3.6,0,6.5-2.9,6.5-6.5S181.6,52.9,178,52.9z M178,62.6
			v-3.3l0,0V62.6z"/>
	</g>
</g>
</svg>
