<?xml version="1.0" encoding="utf-8"?>
<!-- Generator: Adobe Illustrator 28.1.0, SVG Export Plug-In . SVG Version: 6.00 Build 0)  -->
<svg version="1.1" id="Layer_2_00000129206885843668074680000004045631416454292101_"
	 xmlns="http://www.w3.org/2000/svg" xmlns:xlink="http://www.w3.org/1999/xlink" x="0px" y="0px" viewBox="0 0 248.2 248.2"
	 style="enable-background:new 0 0 248.2 248.2;" xml:space="preserve">
<style type="text/css">
	.st0{fill:#4AB96A;}
	.st1{fill:#1F2758;}
</style>
<g id="Layer_1-2">
	<g>
		<rect x="104" y="103.4" class="st0" width="17.1" height="17.2"/>
		<rect x="127.2" y="103.4" class="st0" width="17.1" height="17.2"/>
		<rect x="104" y="124" class="st0" width="17.1" height="17.2"/>
		<rect x="127.2" y="124" class="st0" width="17.1" height="17.2"/>
		<polygon class="st1" points="147.6,63.3 124.1,31.1 100.7,63.3 33.8,155.2 2.1,198.8 39.2,198.8 39.2,178.1 56,155.2 61.3,147.9 
			122.8,63.3 124.1,61.5 125.4,63.3 187,147.9 192.3,155.2 209,178.1 209,198.8 246.2,198.8 214.4,155.2 		"/>
		<path class="st1" d="M82.9,173.1h24.9v9.3H82.9v6.3h18.7v10.1H72.1v-42.3h29.5v10H82.9V173.1z"/>
		<path class="st1" d="M118,198.8h-10.8v-42.3H118v16h12.2v-16H141v42.3h-10.8v-16H118C118,182.8,118,198.8,118,198.8z"/>
		<path class="st1" d="M176.8,185.7v1c-0.1,2-0.6,3.8-1.7,5.4c-1,1.6-2.3,2.9-3.9,4c-1.6,1.1-3.3,1.9-5.3,2.5
			c-2,0.6-3.9,0.8-5.9,0.8c-2.5,0-5.1-0.6-7.6-1.9c-2.5-1.3-4.8-3.2-6.8-5.7c-3-4.5-8.7-0.2-8.7-0.2s-3.4-10.8,3.2-11.4
			c7.8-0.7,12.2,5.3,12.2,5.3c1.1,1.3,2.4,2.3,3.9,2.9s3,1.1,4.5,1.1h0.4c1.3,0,2.4-0.2,3.3-0.7c1.1-0.5,1.7-1.3,1.7-2.5
			c0-0.6-0.2-1.1-0.6-1.6c-0.4-0.5-1-0.9-1.7-1.2c-0.7-0.3-1.5-0.6-2.3-0.9c-0.9-0.2-1.8-0.4-2.6-0.5c-1.7-0.3-3.4-0.8-4.9-1.4
			c-1.6-0.7-3-1.6-4.2-2.6c-1.2-1.1-2.2-2.4-2.9-4c-0.7-1.5-1.1-3.4-1.1-5.4s0.4-3.9,1.3-5.5c0.9-1.6,2-2.9,3.4-4
			c1.4-1.1,3.1-1.9,4.9-2.4c1.8-0.5,3.7-0.8,5.7-0.8c1.3,0,2.5,0.1,3.8,0.3c1.3,0.2,2.5,0.6,3.7,1.1s2.4,1.2,3.6,2.1
			c1.2,0.9,2.3,2,3.4,3.3l-7,5.4c-1.1-1.2-2.4-2.1-3.8-2.6c-1.3-0.6-2.6-0.8-3.8-0.8c0,0-0.1,0-0.1,0.1c-1.2,0-2.3,0.3-3.1,1
			c-0.9,0.6-1.3,1.6-1.3,2.8c0.1,1,0.6,1.9,1.6,2.5c1,0.6,2.3,1.1,4,1.5c1.9,0.4,3.7,0.8,5.5,1.4c1.8,0.6,3.4,1.4,4.8,2.5
			c1.4,1.1,2.5,2.5,3.3,4.1C176.4,181.7,176.8,183.5,176.8,185.7L176.8,185.7z"/>
	</g>
</g>
</svg>
