<svg width="56" height="57" viewBox="0 0 56 57" fill="none" xmlns="http://www.w3.org/2000/svg">
<path fill-rule="evenodd" clip-rule="evenodd" d="M3.5 11.625C3.5 11.2798 3.7794 11 4.12406 11H36.5753C36.92 11 37.1994 11.2798 37.1994 11.625V14.125H51.8649C52.2005 14.125 52.4761 14.3909 52.4885 14.7269C52.6512 19.1275 51.0689 21.9032 48.9755 23.5606C46.9149 25.1921 44.4269 25.6875 42.8159 25.6875H33.455V26C33.455 26.3452 33.1756 26.625 32.8309 26.625H30.9588V44.75C30.9588 45.4404 30.4 46 29.7106 46H19.7256C19.0363 46 18.4775 45.4404 18.4775 44.75V26.625H17.2294C16.8847 26.625 16.6053 26.3452 16.6053 26V25.6875H14.1091C10.4244 25.6875 7.90307 24.4488 6.24605 22.7502C6.19093 22.7087 6.14288 22.6584 6.10404 22.6012C5.9378 22.4228 5.78071 22.2397 5.63244 22.0528C4.03111 20.0343 3.5 17.6237 3.5 16V11.625ZM19.7256 26.625V44.75H29.7106V26.625H19.7256ZM14.1091 24.4375C11.5755 24.4375 9.705 23.8059 8.33228 22.875H34.0791C34.4237 22.875 34.7031 22.5952 34.7031 22.25C34.7031 21.9048 34.4237 21.625 34.0791 21.625H6.90402C6.80141 21.5101 6.70336 21.3934 6.60969 21.2753C5.21551 19.5178 4.74813 17.3971 4.74813 16V12.25H32.4873C32.3986 14.6947 32.647 17.7322 33.9343 20.3108C34.7741 21.9928 36.0467 23.4588 37.9054 24.4375H14.1091ZM33.7363 12.25C33.6466 14.6028 33.8879 17.4226 35.0507 19.7517C36.2834 22.2208 38.5759 24.1956 42.8331 24.4375C44.239 24.4339 46.421 23.9897 48.2015 22.58C49.8675 21.261 51.2441 19.0491 51.2519 15.375H49.6603C49.6467 15.5844 49.6262 15.7928 49.5989 16C49.5151 16.6368 49.3674 17.2611 49.1581 17.8593C48.8131 18.8451 48.3075 19.7408 47.67 20.4952C47.0326 21.2497 46.2758 21.8482 45.4429 22.2565C44.6101 22.6648 43.7174 22.875 42.8159 22.875C41.9145 22.875 41.0218 22.6648 40.1889 22.2565C39.3561 21.8482 38.5993 21.2497 37.9619 20.4952C37.3244 19.7408 36.8188 18.8451 36.4738 17.8593C36.2645 17.2611 36.1168 16.6368 36.033 16C35.9787 15.5874 35.9513 15.1695 35.9513 14.75V12.25H33.7363ZM48.3383 16C48.263 16.496 48.1429 16.9809 47.9802 17.4459C47.6827 18.2959 47.2507 19.0563 46.7172 19.6878C46.184 20.319 45.5622 20.8063 44.8942 21.1338C44.2271 21.4609 43.5217 21.625 42.8159 21.625C42.1102 21.625 41.4048 21.4609 40.7377 21.1338C40.0696 20.8063 39.4479 20.319 38.9147 19.6878C38.3811 19.0563 37.9492 18.2959 37.6517 17.4459C37.4889 16.9809 37.3689 16.496 37.2936 16L48.3383 16Z" fill="#444444"/>
</svg>
