<svg width="56" height="57" viewBox="0 0 56 57" fill="none" xmlns="http://www.w3.org/2000/svg">
<path d="M23.142 23.0984C23.142 22.587 23.5498 22.1725 24.0528 22.1725H31.3396C31.8426 22.1725 32.2504 22.587 32.2504 23.0984C32.2504 23.6098 31.8426 24.0244 31.3396 24.0244H24.0528C23.5498 24.0244 23.142 23.6098 23.142 23.0984Z" fill="#444444"/>
<path fill-rule="evenodd" clip-rule="evenodd" d="M2.7998 26.8024V11.3693C2.7998 10.0056 3.88727 8.90002 5.22872 8.90002H50.7709C52.1123 8.90002 53.1998 10.0056 53.1998 11.3693V26.8024C53.1998 29.8708 50.753 32.3583 47.7347 32.3583H8.26486C5.2466 32.3583 2.7998 29.8708 2.7998 26.8024ZM50.7709 10.752H5.22872C4.89336 10.752 4.62149 11.0284 4.62149 11.3693V25.5677H51.3781V11.3693C51.3781 11.0284 51.1063 10.752 50.7709 10.752ZM51.3781 26.8024L48.342 26.8024V30.4551C50.0651 30.1612 51.3781 28.6377 51.3781 26.8024ZM47.1275 26.8024H8.87209V30.5063H47.1275V26.8024ZM7.65764 26.8024L4.62149 26.8024C4.62149 28.6377 5.93449 30.1612 7.65764 30.4551L7.65764 26.8024Z" fill="#444444"/>
<path d="M22.2417 34.7645C21.8721 34.4176 21.2958 34.441 20.9546 34.8168L13.6679 42.842C13.3267 43.2178 13.3497 43.8036 13.7194 44.1505C14.089 44.4974 14.6652 44.4739 15.0064 44.0982L22.2932 36.073C22.6344 35.6972 22.6114 35.1114 22.2417 34.7645Z" fill="#444444"/>
<path d="M35.0452 34.8168C34.704 34.441 34.1278 34.4176 33.7581 34.7645C33.3885 35.1114 33.3654 35.6972 33.7066 36.073L40.9934 44.0982C41.3346 44.4739 41.9108 44.4974 42.2805 44.1505C42.6501 43.8036 42.6732 43.2178 42.332 42.842L35.0452 34.8168Z" fill="#444444"/>
<path d="M29.5181 35.4449C29.5181 34.9335 29.1103 34.5189 28.6073 34.5189C28.1042 34.5189 27.6964 34.9335 27.6964 35.4449V47.174C27.6964 47.6854 28.1042 48.1 28.6073 48.1C29.1103 48.1 29.5181 47.6854 29.5181 47.174V35.4449Z" fill="#444444"/>
</svg>
