<?xml version="1.0" encoding="utf-8"?>
<!-- Generator: Adobe Illustrator 28.1.0, SVG Export Plug-In . SVG Version: 6.00 Build 0)  -->
<svg version="1.1" id="Layer_1" xmlns="http://www.w3.org/2000/svg" xmlns:xlink="http://www.w3.org/1999/xlink" x="0px" y="0px"
	 viewBox="0 0 200 200" style="enable-background:new 0 0 200 200;" xml:space="preserve">
<style type="text/css">
	.st0{fill:#0E225A;}
</style>
<g>
	<g>
		<path class="st0" d="M148.6,69.8v32.4c0,0.5-0.2,1-0.6,1.4c-0.8,0.8-2.1,0.8-2.8,0c-0.4-0.4-0.6-0.9-0.6-1.4V69.5l-42.6-26.2
			l-11.1,6.8l26,15.9c0.7,0.3,1.2,0.9,1.5,1.6c0.4,0.8,0.6,1.5,0.6,2.2v22.7c0,0.5-0.2,1-0.6,1.4c-0.8,0.8-2,0.8-2.8,0
			c-0.4-0.4-0.6-0.9-0.6-1.4v-23L72.2,43.3L29.8,69.3l-0.2,0.1v61.7h33.2V91c0-1.3,0.5-2.5,1.2-3.2c0.9-0.8,2.1-1.3,3.2-1.3h27.4
			c1.4,0,2.5,0.4,3.2,1.2c0.8,0.9,1.3,2.1,1.3,3.2v13.6c0,0.5-0.2,1-0.6,1.4c-0.8,0.8-2,0.8-2.8,0c-0.4-0.4-0.6-0.9-0.6-1.4V90.5
			H66.8V131h5.5c0.5,0,1,0.2,1.4,0.6c0.4,0.4,0.6,0.9,0.6,1.4c0,0.5-0.2,1-0.6,1.4c-0.4,0.4-0.9,0.6-1.4,0.6H30.1
			c-1.2,0-2.2-0.4-3.3-1.2c-0.8-0.9-1.3-2.1-1.3-3.2V69.8c0-0.7,0.2-1.4,0.5-2.1c0.5-0.7,0.9-1.2,1.6-1.6l42.4-25.9
			c0.7-0.4,1.5-0.7,2.3-0.7c0.8,0,1.6,0.2,2.3,0.7l12.6,7.6l12.6-7.7c1.3-0.9,3.2-0.9,4.5,0L146.5,66c0.7,0.3,1.2,0.9,1.6,1.6
			C148.4,68.4,148.6,69.1,148.6,69.8z"/>
	</g>
	<g>
		<path class="st0" d="M55.6,87.7c-0.7-0.8-1.8-1.2-3.2-1.2h-10c-1.1,0-2.3,0.4-3.2,1.2c-0.6,0.8-1.3,2-1.3,3.2v12.4
			c0,1.1,0.5,2.3,1.3,3.2c0.8,0.8,1.9,1.2,3.2,1.2h10c1.1,0,2.3-0.5,3.2-1.3c0.8-0.7,1.2-1.8,1.2-3.2V91
			C56.9,89.8,56.4,88.7,55.6,87.7z M52.9,103.9H42V90.5h10.9V103.9z"/>
	</g>
	<g>
		<path class="st0" d="M138.5,127.9l-14.2,14.2c-0.8,0.8-2.1,0.8-2.9,0l-8.1-8.1c-0.3-0.5-0.5-1-0.5-1.5c0-0.5,0.2-1,0.6-1.4
			c0.4-0.4,0.9-0.6,1.4-0.6c0.6,0,1.1,0.2,1.4,0.5l6.7,6.7l12.8-12.8c0.5-0.4,0.8-0.5,1.2-0.5c0.5,0,1,0.2,1.4,0.6
			c0.4,0.4,0.6,0.9,0.6,1.5C139.1,127,138.9,127.5,138.5,127.9z"/>
	</g>
	<g>
		<path class="st0" d="M174.3,163.8c-2.1-6.1-4.3-12.4-6.6-18.4l-0.1-0.3l0.2-0.2c1.9-2.3,4-4.7,6.2-7.1c0.3-0.4,0.5-1,0.5-1.4
			c0-0.5-0.3-1-0.6-1.3c-6-5.3-12.5-9.6-19.4-12.6l-0.1-0.1l-0.1-0.1c-0.8-1-0.5-2.2-0.3-3.5c0.1-0.3,0.1-0.6,0.2-1
			c0.8-3.2,0.7-5.6-0.5-7.2c-1.2-1.6-3.4-2.5-6.6-2.6c-1.3,0-2.5-0.3-3.7-0.8l-0.2-0.1c-0.9-1-1.5-2.3-2.1-3.6
			c-1-2.2-2.1-4.5-4.4-5.1c-2.2-0.8-4.5,0.4-6.6,1.6c-1.4,0.7-2.6,1.4-3.9,1.7l-0.1,0l-0.1,0c-1.2-0.2-2.5-0.9-3.8-1.7
			c-1.7-0.9-3.4-1.9-5.1-1.9c-0.5,0-1,0.1-1.4,0.2c-2.4,0.7-3.5,3-4.5,5.3c-0.6,1.3-1.2,2.6-2,3.5l-0.2,0.1
			c-1.2,0.5-2.4,0.8-3.8,0.8c-3.2,0.2-5.4,1.1-6.6,2.8c-1.2,1.6-1.3,4-0.5,7c0.1,0.4,0.1,0.8,0.2,1.1c0.2,1.2,0.5,2.4-0.1,3.4
			l-0.1,0.1l-0.1,0.1c-7,3.1-13.5,7.4-19.4,12.6c-0.4,0.3-0.6,0.8-0.6,1.3c0,0.6,0.1,1.1,0.5,1.4c2.3,2.5,4.3,4.8,6.1,7.2l0.2,0.2
			l-1.2,3.2c-2,5.3-3.8,10.4-5.5,15.5c-0.1,0.4-0.1,0.9,0,1.4c0.1,0.4,0.4,0.8,0.8,0.9c0.4,0.2,0.9,0.3,1.3,0.3
			c0.3,0,0.7-0.2,1.2-0.5c6.1-5.6,13.1-10,20.7-13l0.1,0l0.1,0c2.6,0.3,4.9,0.7,6.8,1.3l0.1,0l0.1,0.1c0.8,0.9,1.4,2.2,2,3.5
			c1.1,2.3,2.2,4.7,4.5,5.2c2.2,0.8,4.5-0.4,6.7-1.6c1.3-0.7,2.5-1.4,3.8-1.7l0.1,0l0.1,0c1.2,0.2,2.5,0.9,3.8,1.7
			c2.2,1.2,4.5,2.5,6.7,1.7c2.3-0.7,3.5-3,4.5-5.3c0.6-1.3,1.2-2.6,2-3.5l0.1-0.1l0.1,0c2-0.6,4.2-1,6.8-1.3l0.1,0l0.1,0
			c7.5,3,14.5,7.4,20.7,12.9c0.3,0.3,0.7,0.4,1.3,0.5c0.4,0.1,0.7,0,1.2-0.3c0.4-0.2,0.6-0.5,0.8-0.9c0-0.2-0.1-0.4-0.1-0.6
			C174.3,164.3,174.3,164,174.3,163.8z M97.9,149.8l0.2,0.5l-0.5,0.2c-4.2,1.8-8.4,4.2-12.5,7l-1.3,0.9l4.8-12.9
			c0.2-0.5,0.2-0.8,0.1-0.9l-0.1-0.2c-0.1-0.3-0.2-0.6-0.3-0.7l0,0c-1-1.2-2-2.4-3-3.6c-0.8-0.9-1.6-1.9-2.4-2.8l-0.3-0.4l0.4-0.3
			c2.6-2.2,5.4-4.2,8.3-6l0.8-0.5v0.9c0,2.4,1.8,4.1,3.5,5.8c1.1,1,2.1,2,2.7,3.1l0.1,0.2c0.2,1.2-0.1,2.6-0.4,4.1
			C97.6,146,97.2,148.2,97.9,149.8z M150.1,138.5c-0.4,1.8-0.4,3.9,0.3,5.8c0.8,3.4,0.3,3.9,0.2,4.1c-0.3,0.4-1,0.8-4,1.1h0
			c-1.8,0-3.7,0.5-5.5,1.6c-1.5,1.4-2.5,3-3.3,4.8c-1.1,2.4-1.7,3.4-2.4,3.5l-0.1,0l-0.1,0c-1.3-0.2-2.7-0.9-4.1-1.7
			c-1.7-0.9-3.4-1.9-5-1.8c-1.7-0.1-3.5,0.9-5.2,1.9c-1.4,0.8-2.7,1.5-3.9,1.7l-0.2,0l-0.2-0.2c-1-0.9-1.7-2.3-2.4-3.9
			c-0.8-1.7-1.6-3.5-2.9-4.3c-1.3-1.1-3.3-1.3-5.3-1.6c-1.6-0.2-3.1-0.4-4.2-0.9l-0.2-0.1l0-0.2c-0.2-1.3,0.1-2.8,0.4-4.4
			c0.4-1.9,0.8-3.9,0.2-5.3c-0.4-1.5-1.9-2.9-3.3-4.2c-1.2-1.1-2.4-2.2-2.9-3.4l-0.1-0.2l0.1-0.2c0.5-1.3,1.7-2.4,3-3.5
			c1.4-1.3,2.8-2.6,3.2-4c0.6-1.6,0.2-3.6-0.1-5.5c-0.3-1.6-0.6-3-0.4-4.2l0-0.2l0.2-0.1c1.1-0.7,2.7-0.9,4.4-1.1
			c1.9-0.2,3.8-0.5,5-1.4c1.4-0.9,2.2-2.7,3-4.4c0.7-1.5,1.3-2.9,2.3-3.8l0.2-0.2l0.2,0c1.3,0.2,2.6,0.9,4.1,1.7
			c1.6,0.9,3.4,1.9,5,1.8c1.7,0.1,3.5-0.9,5.2-1.9c1.4-0.8,2.7-1.5,3.9-1.7l0.1,0l0.1,0c0.6,0.2,1.1,1.1,1.8,2.5
			c0.2,0.3,0.3,0.6,0.5,0.9c0.6,1.8,1.8,3.5,3.3,4.9c1.8,1,3.7,1.6,5.5,1.6c3.1,0.3,3.8,0.7,4.1,1.1l0.1,0.1l0,0.1
			c0.2,1.3-0.1,2.8-0.4,4.4c-0.4,1.9-0.8,3.9-0.2,5.3c0.4,1.6,1.9,3,3.3,4.3c1.2,1.1,2.4,2.2,2.9,3.3l0,0.2c0,0.7-0.8,1.6-2.7,3.3
			C151.9,135.3,150.8,136.8,150.1,138.5z M166.8,157.6c-3.7-2.8-7.9-5.2-12.3-7.2l-0.5-0.2l0.2-0.5c0.8-1.7,0.4-3.8,0-5.8
			c-0.3-1.5-0.6-2.9-0.4-4.1l0.1-0.2c0.6-1.1,1.6-2,2.7-3c1.8-1.7,3.6-3.4,3.6-5.7l0-0.9l0.8,0.5c3.2,1.9,6,4.1,8.3,6l0.4,0.3
			l-0.3,0.4c-1.9,2.1-3.8,4.3-5.6,6.5c-0.2,0.3-0.4,0.6-0.4,0.8l0,0.2c0,0.1,0,0.4,0.1,1c1.4,3.7,2.8,7.5,4.2,11.4l0.6,1.6
			L166.8,157.6z"/>
	</g>
</g>
</svg>
