<svg width="57" height="57" viewBox="0 0 57 57" fill="none" xmlns="http://www.w3.org/2000/svg">
<path d="M24.7089 12.3031C24.138 12.3031 23.6751 12.766 23.6751 13.3369C23.6751 13.9079 24.138 14.3708 24.7089 14.3708H32.2905C32.8615 14.3708 33.3243 13.9079 33.3243 13.3369C33.3243 12.766 32.8615 12.3031 32.2905 12.3031H24.7089Z" fill="#444444"/>
<path d="M34.0142 13.3369C34.0142 12.766 34.477 12.3031 35.048 12.3031H35.7372C36.3082 12.3031 36.7711 12.766 36.7711 13.3369C36.7711 13.9079 36.3082 14.3708 35.7372 14.3708H35.048C34.477 14.3708 34.0142 13.9079 34.0142 13.3369Z" fill="#444444"/>
<path d="M21.2629 12.3031C20.6919 12.3031 20.229 12.766 20.229 13.3369C20.229 13.9079 20.6919 14.3708 21.2629 14.3708H21.9521C22.5231 14.3708 22.9859 13.9079 22.9859 13.3369C22.9859 12.766 22.5231 12.3031 21.9521 12.3031H21.2629Z" fill="#444444"/>
<path fill-rule="evenodd" clip-rule="evenodd" d="M17.8171 25.3984C14.7719 25.3984 12.3032 27.867 12.3032 30.9123V39.183C12.3032 42.2282 14.7719 44.6969 17.8171 44.6969H39.1832C42.2284 44.6969 44.6971 42.2282 44.6971 39.183V30.9123C44.6971 27.867 42.2284 25.3984 39.1832 25.3984H17.8171ZM39.1832 26.7769H17.8171C15.5332 26.7769 13.6817 28.6283 13.6817 30.9123V39.183C13.6817 41.4669 15.5332 43.3184 17.8171 43.3184H39.1832C41.4671 43.3184 43.3186 41.4669 43.3186 39.183V30.9123C43.3186 28.6284 41.4671 26.7769 39.1832 26.7769Z" fill="#444444"/>
<path d="M20.229 21.9523C20.229 21.3813 20.6919 20.9184 21.2629 20.9184H35.7367C36.3077 20.9184 36.7705 21.3813 36.7705 21.9523C36.7705 22.5233 36.3077 22.9861 35.7367 22.9861H21.2629C20.6919 22.9861 20.229 22.5233 20.229 21.9523Z" fill="#444444"/>
<path fill-rule="evenodd" clip-rule="evenodd" d="M6.1001 11.6138C6.1001 8.56861 8.56873 6.09998 11.6139 6.09998H45.3862C48.4315 6.09998 50.9001 8.56861 50.9001 11.6138V45.3861C50.9001 48.4313 48.4315 50.9 45.3862 50.9H11.6139C8.56873 50.9 6.1001 48.4313 6.1001 45.3861V11.6138ZM45.3862 8.16767H11.6139C9.71069 8.16767 8.16779 9.71056 8.16779 11.6138V18.5061H48.8324V11.6138C48.8324 9.71056 47.2895 8.16767 45.3862 8.16767ZM48.8324 19.1954H8.16779V45.3861C8.16779 47.2894 9.71069 48.8323 11.6139 48.8323H45.3862C47.2895 48.8323 48.8324 47.2894 48.8324 45.3861V19.1954Z" fill="#444444"/>
</svg>
