<?xml version="1.0" encoding="UTF-8"?>
<svg version="1.1" xmlns="http://www.w3.org/2000/svg" width="233" height="238">
<path d="M0 0 C0.96536682 -0.00295578 1.93073364 -0.00591156 2.925354 -0.00895691 C3.97696716 0.00334457 5.02858032 0.01564606 6.11206055 0.02832031 C7.22305115 0.02978561 8.33404175 0.03125092 9.47869873 0.03276062 C13.1522965 0.04209276 16.82532071 0.07374776 20.4987793 0.10644531 C23.05338142 0.11908081 25.60798786 0.13087009 28.16259766 0.1418457 C46.19242547 0.23732637 64.22148686 0.48344248 82.2487793 0.79394531 C83.39528961 0.81332153 84.54179993 0.83269775 85.72305298 0.85266113 C91.97900318 0.96242354 98.23312118 1.09967312 104.48736572 1.28289795 C106.23303496 1.33046871 107.97896166 1.36965192 109.72503662 1.39874268 C111.96212805 1.43644614 114.19630094 1.50327499 116.43237305 1.57910156 C117.63434326 1.60883057 118.83631348 1.63855957 120.07470703 1.66918945 C124.13920449 2.56691879 125.58305727 4.16128638 128.1862793 7.35644531 C129.6809082 9.76220703 129.6809082 9.76220703 130.9128418 12.28613281 C131.61449463 13.70575317 131.61449463 13.70575317 132.33032227 15.15405273 C132.81903809 16.16959229 133.30775391 17.18513184 133.8112793 18.23144531 C134.33995605 19.30950439 134.86863281 20.38756348 135.41333008 21.49829102 C139.10022952 29.03917494 142.73485742 36.60704848 146.31298828 44.20019531 C149.21994367 50.34102969 152.21476261 56.43028436 155.265625 62.50074768 C157.29851363 66.54899933 159.31779398 70.60398569 161.3369751 74.65908813 C162.35575321 76.6958149 163.38087793 78.72938027 164.41253662 80.75961304 C165.87832489 83.64594114 167.32129517 86.54272705 168.76049805 89.44238281 C169.20682083 90.30727829 169.65314362 91.17217377 170.11299133 92.0632782 C172.65743695 97.25353761 174.7653545 102.54328532 173.1862793 108.35644531 C171.7001524 110.45037651 171.7001524 110.45037651 169.1862793 112.35644531 C166.1426259 112.74916 163.46149277 112.89679567 160.41809082 112.86437988 C159.07575072 112.87373983 159.07575072 112.87373983 157.70629263 112.88328886 C154.70130831 112.89927063 151.69712932 112.88659426 148.69213867 112.87402344 C146.54042588 112.87944224 144.3887168 112.88656354 142.23701477 112.89526367 C136.38790385 112.91352855 130.53907454 112.90641632 124.68995857 112.89374733 C118.5752396 112.8836361 112.46054509 112.89300778 106.3458252 112.89929199 C96.07629049 112.90657386 85.80687077 112.89696648 75.53735352 112.87792969 C63.65618917 112.85616001 51.77529936 112.86321099 39.89414167 112.88523531 C29.70212688 112.90337388 19.51019484 112.90595516 9.31816912 112.89548063 C3.22701548 112.88923724 -2.86400902 112.88843337 -8.95515442 112.90162659 C-14.68108312 112.91316194 -20.40665709 112.90520147 -26.13254738 112.88204956 C-28.23686445 112.87675011 -30.34121126 112.87829724 -32.44551659 112.88710022 C-35.31259464 112.89799037 -38.17852764 112.88437109 -41.04553223 112.86437988 C-41.88327006 112.87330277 -42.72100789 112.88222566 -43.58413172 112.89141893 C-47.24220027 112.84175833 -49.36709686 112.69404973 -52.3298254 110.45451355 C-54.86541679 106.86946025 -54.43713088 103.57249311 -53.8137207 99.35644531 C-52.96173458 96.51720038 -51.74617541 93.96296982 -50.40356445 91.32519531 C-49.86538338 90.21358284 -49.86538338 90.21358284 -49.31632996 89.07951355 C-48.14335917 86.66395905 -46.94717331 84.26069127 -45.7512207 81.85644531 C-44.50606385 79.30364829 -43.26746233 76.7477387 -42.02923584 74.1915741 C-41.18779741 72.4552886 -40.34440127 70.71995053 -39.49908447 68.98554993 C-35.81522981 61.41506902 -32.30903176 53.77214487 -28.85955811 46.09259033 C-24.03129992 35.35085998 -19.14736935 24.6344649 -14.1262207 13.98144531 C-13.64491699 12.94076904 -13.16361328 11.90009277 -12.66772461 10.82788086 C-12.21703613 9.88082275 -11.76634766 8.93376465 -11.30200195 7.95800781 C-10.72252808 6.7255835 -10.72252808 6.7255835 -10.13134766 5.46826172 C-7.54412533 1.32161115 -4.81601106 -0.02095592 0 0 Z M-3.8137207 7.35644531 C-4.78538911 9.15663373 -5.67672556 11.00046222 -6.52856445 12.86035156 C-7.04999023 13.99408203 -7.57141602 15.1278125 -8.10864258 16.29589844 C-8.65069336 17.49150391 -9.19274414 18.68710938 -9.7512207 19.91894531 C-10.55849609 21.67174805 -10.55849609 21.67174805 -11.38208008 23.45996094 C-14.08056634 29.35936433 -16.64449521 35.24179925 -18.8137207 41.35644531 C-17.02259108 41.52878768 -15.23076979 41.69394212 -13.4387207 41.85644531 C-11.94211914 41.99566406 -11.94211914 41.99566406 -10.4152832 42.13769531 C-5.87678514 42.41335246 -1.35889892 42.39732126 3.1862793 42.35644531 C4.61396863 37.69443212 6.03804039 33.03133543 7.45874023 28.3671875 C7.94276733 26.77996846 8.42778943 25.1930525 8.91381836 23.60644531 C9.61141286 21.32858572 10.30544614 19.04966754 10.9987793 16.77050781 C11.21751709 16.05899567 11.43625488 15.34748352 11.66162109 14.6144104 C12.79568967 11.04964468 12.79568967 11.04964468 13.1862793 7.35644531 C10.33432707 5.9304692 7.86166754 6.22442012 4.6862793 6.23144531 C2.93831055 6.22757812 2.93831055 6.22757812 1.1550293 6.22363281 C-1.74302856 6.15160221 -1.74302856 6.15160221 -3.8137207 7.35644531 Z M20.1862793 7.35644531 C18.5362793 12.63644531 16.8862793 17.91644531 15.1862793 23.35644531 C23.1062793 23.35644531 31.0262793 23.35644531 39.1862793 23.35644531 C39.5162793 18.07644531 39.8462793 12.79644531 40.1862793 7.35644531 C33.5862793 7.35644531 26.9862793 7.35644531 20.1862793 7.35644531 Z M47.1862793 7.35644531 C44.66240847 29.007926 42.30294862 50.66058476 40.1862793 72.35644531 C50.7462793 72.35644531 61.3062793 72.35644531 72.1862793 72.35644531 C71.5486362 57.72421422 70.46867022 43.18888861 69.1237793 28.60644531 C68.93526071 26.52965573 68.74710792 24.4528329 68.55932617 22.37597656 C68.10650405 17.36900072 67.64626381 12.36278843 67.1862793 7.35644531 C60.5862793 7.35644531 53.9862793 7.35644531 47.1862793 7.35644531 Z M74.1862793 8.35644531 C74.1862793 10.33644531 74.1862793 12.31644531 74.1862793 14.35644531 C81.1162793 14.35644531 88.0462793 14.35644531 95.1862793 14.35644531 C94.5262793 12.37644531 93.8662793 10.39644531 93.1862793 8.35644531 C86.9162793 8.35644531 80.6462793 8.35644531 74.1862793 8.35644531 Z M100.1862793 8.35644531 C102.93805227 19.69494422 105.95755682 30.94415702 109.1328125 42.17114258 C109.88728854 44.84176403 110.63555186 47.51407984 111.38354492 50.18652344 C111.86299452 51.8877991 112.34279822 53.58897501 112.82299805 55.29003906 C113.04590012 56.0877623 113.26880219 56.88548553 113.49845886 57.7073822 C114.28717316 61.322313 114.28717316 61.322313 116.1862793 64.35644531 C118.56196449 64.44484202 120.90836604 64.47174836 123.28393555 64.45410156 C123.99279404 64.45268661 124.70165253 64.45127167 125.43199158 64.44981384 C127.70429642 64.44419974 129.97650405 64.43164494 132.2487793 64.41894531 C133.78588725 64.41393213 135.32299675 64.4093689 136.86010742 64.40527344 C140.63553572 64.39422574 144.410891 64.37695173 148.1862793 64.35644531 C145.19503817 58.01894201 142.19319603 51.68652525 139.1862793 45.35644531 C138.6888623 44.30827637 138.19144531 43.26010742 137.67895508 42.18017578 C136.12240155 38.90391722 134.56111669 35.62994916 132.9987793 32.35644531 C132.51248047 31.33172119 132.02618164 30.30699707 131.52514648 29.2512207 C126.9616195 17.34134815 126.9616195 17.34134815 119.1862793 8.35644531 C117.73779348 8.27302372 116.2855706 8.2491167 114.8347168 8.25878906 C113.55854492 8.26362305 113.55854492 8.26362305 112.2565918 8.26855469 C111.36713867 8.27693359 110.47768555 8.2853125 109.5612793 8.29394531 C108.21549805 8.30071289 108.21549805 8.30071289 106.8425293 8.30761719 C104.62371281 8.3194194 102.40502911 8.33588376 100.1862793 8.35644531 Z M75.1862793 21.35644531 C75.14827761 29.17569586 75.14827761 29.17569586 75.53759766 36.91040039 C75.61445297 37.87452347 75.69130829 38.83864655 75.77049255 39.83198547 C75.85485062 40.83650253 75.93920868 41.84101959 76.02612305 42.87597656 C76.11253555 43.93757492 76.19894806 44.99917328 76.28797913 46.09294128 C76.47014011 48.3192019 76.65428483 50.54530102 76.84033203 52.77124023 C77.12438283 56.17617992 77.40089784 59.58167293 77.67651367 62.98730469 C77.85510489 65.15856531 78.03412626 67.32979061 78.21362305 69.50097656 C78.33712379 71.02293388 78.33712379 71.02293388 78.46311951 72.57563782 C78.54312698 73.52400009 78.62313446 74.47236237 78.70556641 75.44946289 C78.80882484 76.69328484 78.80882484 76.69328484 78.91416931 77.9622345 C79.19659202 80.44718373 79.69580326 82.90406514 80.1862793 85.35644531 C91.7362793 85.35644531 103.2862793 85.35644531 115.1862793 85.35644531 C112.93701805 76.25023713 112.93701805 76.25023713 110.46875 67.22070312 C110.16866531 66.1805304 109.86858063 65.14035767 109.55940247 64.06866455 C109.24677963 62.99316345 108.9341568 61.91766235 108.61206055 60.80957031 C108.28336472 59.67235535 107.95466888 58.53514038 107.61601257 57.36346436 C106.57895704 53.77720246 105.53892194 50.19181291 104.4987793 46.60644531 C103.78959664 44.15598186 103.08061045 41.70546153 102.37182617 39.25488281 C100.64557891 33.28807778 98.91666131 27.32205251 97.1862793 21.35644531 C89.9262793 21.35644531 82.6662793 21.35644531 75.1862793 21.35644531 Z M13.1862793 30.35644531 C6.72934294 51.19171417 0.33373401 72.03954992 -5.77807617 92.97900391 C-5.97676804 93.65963898 -6.1754599 94.34027405 -6.38017273 95.04153442 C-6.91200909 96.86528644 -7.44238945 98.68946288 -7.97265625 100.51367188 C-8.55197741 102.47176059 -9.16798667 104.41924321 -9.8137207 106.35644531 C3.3862793 106.35644531 16.5862793 106.35644531 30.1862793 106.35644531 C31.51658563 97.04430095 32.73924976 87.79080084 33.6940918 78.44238281 C33.82443817 77.18430817 33.95478455 75.92623352 34.08908081 74.6300354 C34.42975225 71.33412827 34.76786175 68.03797114 35.10498047 64.74169922 C35.38192865 62.04301122 35.66246101 59.34470051 35.94299507 56.64638329 C36.27878221 53.41193139 36.61133422 50.17714758 36.9440918 46.94238281 C37.06906036 45.73826752 37.19402893 44.53415222 37.32278442 43.29354858 C37.43645355 42.17783478 37.55012268 41.06212097 37.66723633 39.91259766 C37.81807175 38.44371597 37.81807175 38.44371597 37.97195435 36.94515991 C38.24128579 34.12498041 38.24128579 34.12498041 38.1862793 30.35644531 C29.9362793 30.35644531 21.6862793 30.35644531 13.1862793 30.35644531 Z M-21.8137207 47.35644531 C-28.69906984 60.75271372 -35.04445232 74.40111276 -41.30737305 88.09716797 C-42.30132297 90.24777274 -43.31692618 92.38851864 -44.35522461 94.51806641 C-44.82234863 95.48953613 -45.28947266 96.46100586 -45.77075195 97.46191406 C-46.18945557 98.31293701 -46.60815918 99.16395996 -47.03955078 100.04077148 C-48.13030264 102.61338052 -48.13030264 102.61338052 -46.8137207 106.35644531 C-36.5837207 106.35644531 -26.3537207 106.35644531 -15.8137207 106.35644531 C-13.55250374 98.88193783 -11.29186373 91.40726099 -9.03271484 83.93212891 C-8.26385227 81.38873087 -7.49464844 78.84543598 -6.72509766 76.30224609 C-5.6196279 72.64870776 -4.51538216 68.99480142 -3.41137695 65.34082031 C-3.06655777 64.20215515 -2.72173859 63.06348999 -2.36647034 61.89031982 C-1.88608559 60.29912323 -1.88608559 60.29912323 -1.39599609 58.67578125 C-0.97296959 57.27679596 -0.97296959 57.27679596 -0.54139709 55.84954834 C0.08764411 53.6943808 0.66130777 51.53893052 1.1862793 49.35644531 C-3.55251838 48.20793834 -8.27663432 48.02742974 -13.1262207 47.79394531 C-13.96217773 47.75076172 -14.79813477 47.70757812 -15.65942383 47.66308594 C-17.71069006 47.55759225 -19.7621855 47.45657216 -21.8137207 47.35644531 Z M118.1862793 70.35644531 C119.59915707 78.17643106 121.58491972 85.7762825 123.7487793 93.41894531 C124.06524414 94.55783203 124.38170898 95.69671875 124.70776367 96.87011719 C125.73842821 101.98201184 125.73842821 101.98201184 128.1862793 106.35644531 C130.99791309 106.44506523 133.78486185 106.47166886 136.59643555 106.45410156 C137.85948769 106.45197914 137.85948769 106.45197914 139.14805603 106.44981384 C141.84833264 106.44419795 144.54852757 106.4316428 147.2487793 106.41894531 C149.07494998 106.41393236 150.90112195 106.4093691 152.72729492 106.40527344 C157.21365472 106.39422335 161.69995314 106.3769481 166.1862793 106.35644531 C167.62059994 101.90250823 166.05617837 99.21998086 164.0378418 95.21972656 C163.53986588 94.19965767 163.53986588 94.19965767 163.03182983 93.15898132 C161.96933142 90.99001357 160.89034148 88.82971209 159.8112793 86.66894531 C159.09148694 85.20265967 158.37272443 83.73586799 157.6550293 82.26855469 C154.97809656 75.91110592 154.97809656 75.91110592 151.1862793 70.35644531 C148.73797503 70.26800738 146.31807331 70.2411578 143.86987305 70.25878906 C143.13881851 70.26020401 142.40776398 70.26161896 141.65455627 70.26307678 C139.31092297 70.26869123 136.9673839 70.2812461 134.6237793 70.29394531 C133.03849421 70.29895846 131.45320764 70.30352168 129.86791992 70.30761719 C125.9740032 70.31866535 122.08015724 70.3359396 118.1862793 70.35644531 Z M40.1862793 78.35644531 C37.95111267 91.64555697 37.95111267 91.64555697 37.1862793 106.35644531 C49.7262793 106.35644531 62.2662793 106.35644531 75.1862793 106.35644531 C74.5262793 97.11644531 73.8662793 87.87644531 73.1862793 78.35644531 C62.2962793 78.35644531 51.4062793 78.35644531 40.1862793 78.35644531 Z M80.1862793 91.35644531 C80.5162793 96.30644531 80.8462793 101.25644531 81.1862793 106.35644531 C94.3862793 106.35644531 107.5862793 106.35644531 121.1862793 106.35644531 C119.8662793 101.40644531 118.5462793 96.45644531 117.1862793 91.35644531 C104.9762793 91.35644531 92.7662793 91.35644531 80.1862793 91.35644531 Z " fill="#434343" transform="translate(56.813720703125,62.6435546875)"/>
</svg>
