<?xml version="1.0" encoding="UTF-8"?>
<svg version="1.1" xmlns="http://www.w3.org/2000/svg" width="233" height="238">
<path d="M0 0 C1.40578656 0.20442396 2.81168947 0.40804907 4.21769714 0.61094666 C7.99310109 1.15824078 11.76670497 1.71709796 15.54001093 2.27865171 C19.50285783 2.86679051 23.46709222 3.44544007 27.43112183 4.02554321 C34.07404276 4.99921139 40.71580953 5.98046383 47.35693359 6.96630859 C55.03381754 8.10580951 62.71242315 9.2330819 70.39204609 10.35396326 C77.79719664 11.43507405 85.20105725 12.52478282 92.6043663 13.61842728 C95.74982415 14.08292888 98.89570494 14.54439726 102.04196548 15.00342941 C105.738335 15.54311438 109.43351664 16.09030389 113.12790871 16.64335823 C115.13152622 16.94147174 117.13625664 17.2320749 119.14100647 17.5224762 C120.32956741 17.70192276 121.51812836 17.88136932 122.7427063 18.06625366 C123.77758745 18.2192713 124.81246861 18.37228893 125.87870979 18.52994347 C128.44482422 19.10400391 128.44482422 19.10400391 131.44482422 21.10400391 C131.74588491 23.73683652 131.84912606 26.13603631 131.82577515 28.77197266 C131.83045512 29.57264664 131.83513509 30.37332062 131.83995688 31.19825745 C131.85197628 33.896172 131.84242279 36.59358508 131.83300781 39.29150391 C131.83707044 41.21956683 131.84241057 43.14762743 131.84893799 45.07568359 C131.86265419 50.32352366 131.85729523 55.57118748 131.84780073 60.81903076 C131.84022637 66.30074554 131.84724354 71.78244482 131.85195923 77.26416016 C131.85742328 86.47121908 131.85020814 95.67820591 131.8359375 104.88525391 C131.81960977 115.54282916 131.82489781 126.20023227 131.84141672 136.85780334 C131.85501309 145.99412005 131.85696031 155.13038482 131.84910071 164.26670837 C131.844414 169.72959212 131.84382664 175.19239484 131.85371017 180.65527344 C131.86235071 185.79016208 131.85641145 190.92482791 131.8390274 196.05969238 C131.83504693 197.94876739 131.83622309 199.83786102 131.8428154 201.72692871 C131.85095967 204.29688749 131.84079639 206.86612302 131.82577515 209.43603516 C131.83246731 210.1914711 131.83915948 210.94690704 131.84605443 211.72523499 C131.82234764 213.80249023 131.82234764 213.80249023 131.44482422 217.10400391 C120.42045547 224.45358307 99.42763257 219.90350998 87.06860352 218.02441406 C85.52744047 217.79997501 83.98611378 217.57665739 82.44464111 217.35435486 C78.3218135 216.75645839 74.20149098 216.14275645 70.08152366 215.52549791 C65.74635784 214.87850611 61.40915763 214.2454269 57.07221985 213.61044312 C49.80813921 212.54481907 42.5455771 211.46932075 35.28393555 210.38720703 C26.89655528 209.13741166 18.50727497 207.90110103 10.11678571 206.67236292 C1.15057474 205.35919315 -7.81422489 204.03658444 -16.77861381 202.71104002 C-19.35253623 202.33107139 -21.92670814 201.95283408 -24.50094032 201.57497025 C-28.53947811 200.98166681 -32.57702492 200.38201823 -36.6138916 199.77745247 C-38.0934293 199.55684466 -39.57327966 199.33832201 -41.05345726 199.12204933 C-43.07472001 198.82633552 -45.09474746 198.5222147 -47.11470032 198.21768188 C-48.24448461 198.04991556 -49.37426889 197.88214924 -50.53828907 197.70929909 C-53.41434226 197.13226014 -55.87992095 196.2906925 -58.55517578 195.10400391 C-58.69881816 188.11488072 -58.29518753 181.33010451 -57.49658203 174.38916016 C-57.38797348 173.41160263 -57.27936493 172.4340451 -57.16746521 171.42686462 C-56.93889673 169.38039126 -56.70766906 167.33421327 -56.47387695 165.28833008 C-56.11595665 162.15143707 -55.76756576 159.013589 -55.42041016 155.87548828 C-55.19635801 153.87998293 -54.97176796 151.88453788 -54.74658203 149.88916016 C-54.64237442 148.95169449 -54.53816681 148.01422882 -54.43080139 147.0483551 C-54.33077316 146.17992477 -54.23074493 145.31149445 -54.12768555 144.41674805 C-54.0410817 143.65415176 -53.95447784 142.89155548 -53.86524963 142.10585022 C-53.55517578 140.10400391 -53.55517578 140.10400391 -52.55517578 137.10400391 C-53.35955078 136.95962891 -54.16392578 136.81525391 -54.99267578 136.66650391 C-57.55517578 136.10400391 -57.55517578 136.10400391 -58.55517578 135.10400391 C-59.37114618 123.40092201 -57.91530322 111.45710262 -57.05517578 99.79150391 C-56.91022119 97.77916456 -56.76568669 95.76679492 -56.62158203 93.75439453 C-56.27095283 88.87056829 -55.91465044 83.98718671 -55.55517578 79.10400391 C-56.87517578 78.77400391 -58.19517578 78.44400391 -59.55517578 78.10400391 C-59.738752 70.67996573 -59.02630033 63.54680678 -58.09423828 56.18603516 C-57.86829483 54.36201424 -57.86829483 54.36201424 -57.63778687 52.50114441 C-57.3193731 49.94337244 -56.99816601 47.38594682 -56.67431641 44.82885742 C-56.1805735 40.91965284 -55.69935613 37.00904317 -55.21923828 33.09814453 C-54.90749042 30.60651385 -54.59501534 28.11497403 -54.28173828 25.62353516 C-54.06754745 23.8749395 -54.06754745 23.8749395 -53.84902954 22.09101868 C-52.47168162 11.35060804 -52.47168162 11.35060804 -50.55517578 7.10400391 C-48.12158203 5.56494141 -48.12158203 5.56494141 -45.11767578 4.47900391 C-44.03486328 4.08068359 -42.95205078 3.68236328 -41.83642578 3.27197266 C-40.75361328 2.88654297 -39.67080078 2.50111328 -38.55517578 2.10400391 C-37.63736328 1.70826172 -36.71955078 1.31251953 -35.77392578 0.90478516 C-24.15531559 -3.96477941 -12.13104297 -1.8231271 0 0 Z M-28.93017578 6.60400391 C-30.12642578 7.09900391 -31.32267578 7.59400391 -32.55517578 8.10400391 C-32.55517578 8.43400391 -32.55517578 8.76400391 -32.55517578 9.10400391 C-31.65302338 9.23435532 -30.75087097 9.36470673 -29.82138062 9.49900818 C-27.89015854 9.77805748 -27.89015854 9.77805748 -25.91992188 10.06274414 C-25.20878172 10.16548614 -24.49764156 10.26822813 -23.76495171 10.37408352 C-19.67623364 10.96484005 -15.58756272 11.55592049 -11.4989624 12.14749146 C-3.14494449 13.35595854 5.20933019 14.56251294 13.56488991 15.76027966 C18.3323559 16.44380365 23.09958953 17.12893714 27.86669922 17.81494141 C28.82109264 17.95226496 29.77548607 18.08958851 30.75880051 18.23107338 C42.9658852 19.99033316 55.16050156 21.81369231 67.34399796 23.72940636 C71.65401025 24.40464037 75.96613891 25.06625315 80.27824211 25.72798634 C83.62252741 26.24291331 86.96436157 26.76886718 90.30303955 27.31906128 C93.96932639 27.91921872 97.6393433 28.48586851 101.31201172 29.04541016 C102.37897278 29.22999786 103.44593384 29.41458557 104.54522705 29.60476685 C105.52126892 29.74703705 106.49731079 29.88930725 107.50292969 30.03588867 C108.34290497 30.1706813 109.18288025 30.30547394 110.04830933 30.4443512 C113.65127633 29.93266647 115.12030331 27.76071255 117.44482422 25.10400391 C99.81702685 22.49106243 82.18850385 19.88307613 64.55910301 17.28097534 C56.37336238 16.07264162 48.18786674 14.86269185 40.00292969 13.64892578 C32.86837576 12.59092802 25.73337948 11.53597434 18.59783709 10.48466301 C14.82017414 9.92797476 11.04274912 9.36977195 7.26585007 8.80792236 C3.70913467 8.27887634 0.15184071 7.75391021 -3.40593338 7.23203278 C-5.33035827 6.94867156 -7.25414972 6.66101872 -9.17791748 6.37322998 C-10.90677689 6.12080536 -10.90677689 6.12080536 -12.67056274 5.86328125 C-13.66794275 5.71579437 -14.66532276 5.5683075 -15.69292641 5.41635132 C-20.45505935 4.89667616 -24.46942788 4.75817719 -28.93017578 6.60400391 Z M-44.55517578 14.10400391 C-46.38750239 25.65321407 -48.00354747 37.22537934 -49.47033691 48.82617188 C-49.65113384 50.25536709 -49.83317091 51.684406 -50.01647949 53.11328125 C-50.27690121 55.14876677 -50.53206157 57.18484386 -50.78564453 59.22119141 C-50.93412842 60.40310059 -51.0826123 61.58500977 -51.2355957 62.80273438 C-51.53908993 65.93783671 -51.68738659 68.95721148 -51.55517578 72.10400391 C-49.77087887 73.88830081 -47.09685068 73.6659259 -44.67355347 73.98353577 C-43.39492935 74.15319351 -42.11630524 74.32285126 -40.79893494 74.49765015 C-39.36857192 74.68300823 -37.93819738 74.86827744 -36.5078125 75.0534668 C-35.01160591 75.2503013 -33.51544707 75.44749914 -32.01933289 75.64503479 C-27.94312657 76.18204585 -23.86622604 76.71360428 -19.78915167 77.24397969 C-16.38710683 77.68707526 -12.98542139 78.1328948 -9.58373749 78.5787515 C-1.55485355 79.63108895 6.47458228 80.67913644 14.50439453 81.72436523 C22.78525477 82.80233078 31.06527113 83.8866023 39.34487545 84.97416884 C46.45109695 85.90742742 53.55777221 86.8371693 60.66483295 87.76401514 C64.91023941 88.3176761 69.15547595 88.87256237 73.40030289 89.43065071 C77.39699405 89.9559233 81.39423778 90.47677182 85.39194298 90.99426842 C86.85663499 91.18459791 88.32113051 91.37644686 89.78540611 91.56995392 C91.79015718 91.83463049 93.79571434 92.09317963 95.80130005 92.35145569 C96.92182329 92.49764375 98.04234653 92.64383181 99.19682503 92.79444981 C102.59896649 93.1186946 106.02726643 93.10400391 109.44482422 93.10400391 C109.44482422 74.62400391 109.44482422 56.14400391 109.44482422 37.10400391 C104.19846093 35.9381454 99.21895463 34.83920194 93.94715881 34.06625366 C92.73445312 33.8868071 91.52174744 33.70736053 90.27229309 33.5224762 C88.97063705 33.33330124 87.66898102 33.14412628 86.32788086 32.94921875 C84.92090801 32.74231037 83.51397758 32.53511342 82.10708618 32.32765198 C78.31259049 31.76897775 74.51750436 31.21441634 70.72228169 30.66070509 C66.74441437 30.07970507 62.76707061 29.49514172 58.78965759 28.91104126 C52.11994671 27.93209746 45.44986893 26.95568718 38.77954102 25.98095703 C31.06332318 24.85337497 23.34759828 23.72246988 15.63214785 22.58964956 C7.41222536 21.38277938 -0.80801708 20.17810039 -9.028373 18.97418642 C-11.39755234 18.62707032 -13.76667459 18.27956679 -16.13578606 17.93198776 C-19.84972188 17.38723186 -23.56387152 16.84395763 -27.27819443 16.30184746 C-28.64327096 16.10238723 -30.00827604 15.90243734 -31.37320518 15.70197105 C-33.23074048 15.42924532 -35.08856044 15.15846046 -36.94639587 14.88778687 C-37.98739409 14.73552328 -39.02839231 14.5832597 -40.10093594 14.42638206 C-42.47311636 14.06059163 -42.47311636 14.06059163 -44.55517578 14.10400391 Z M118.02146721 32.95592308 C114.28961932 38.04034039 115.55534076 45.95835267 115.65014648 52.01147461 C115.65212138 53.76588359 115.65101194 55.52029836 115.64704895 57.27470398 C115.64503991 62.03509357 115.68620253 66.79424931 115.73506665 71.55435205 C115.77881678 76.52975733 115.78293705 81.50519071 115.79124451 86.48075867 C115.81300408 95.90151237 115.87045103 105.32169766 115.94069093 114.74220103 C116.01892443 125.46754643 116.05741841 136.19291893 116.09255898 146.91847861 C116.16573325 168.98063767 116.28886309 191.04228499 116.44482422 213.10400391 C120.78666624 212.91936024 120.78666624 212.91936024 124.44482422 211.10400391 C124.54244646 208.76373266 124.57480026 206.45302009 124.56507874 204.11228943 C124.56636037 203.00232333 124.56636037 203.00232333 124.5676679 201.86993366 C124.56932491 199.37167978 124.56379775 196.87349192 124.55834961 194.37524414 C124.55806776 192.5918681 124.55822543 190.80849194 124.55879211 189.02511597 C124.55908017 184.167882 124.5531821 179.3106725 124.54621816 174.45344424 C124.53998601 169.38319442 124.53938093 164.3129441 124.53819275 159.24269104 C124.53507902 149.63436698 124.52686508 140.02605423 124.51684326 130.41773516 C124.5056834 119.48200863 124.50017199 108.54628157 124.49514782 97.61055076 C124.4846825 75.10836219 124.46708226 52.60618368 124.44482422 30.10400391 C121.90667486 30.10400391 119.9647363 31.52314419 118.02146721 32.95592308 Z M-47.55517578 81.10400391 C-48.83893967 92.83542076 -49.83722592 104.56673882 -50.62548828 116.34228516 C-50.7165689 117.68559751 -50.80779532 119.02889999 -50.89916992 120.37219238 C-51.11926445 123.6160359 -51.3379054 126.85997022 -51.55517578 130.10400391 C-30.85889962 132.84363798 -10.16242863 135.58179582 10.53427696 138.3181839 C20.14355013 139.58869672 29.75275833 140.85969725 39.36181641 142.13183594 C47.73455204 143.24029723 56.10740677 144.34785365 64.48040736 145.45431185 C68.91609779 146.04050289 73.35172619 146.62715485 77.78721237 147.21488953 C81.95825414 147.76756884 86.12945355 148.31904218 90.30077934 148.86957359 C91.83515413 149.0722998 93.36946979 149.27547415 94.90372276 149.47912025 C96.99167972 149.75619433 99.07983968 150.03168395 101.1680603 150.3067627 C102.33873739 150.46162392 103.50941448 150.61648514 104.71556664 150.77603912 C107.31762796 151.14377324 107.31762796 151.14377324 109.44482422 151.10400391 C109.44482422 134.60400391 109.44482422 118.10400391 109.44482422 101.10400391 C92.41132666 98.54616034 92.41132666 98.54616034 75.35180664 96.20288086 C73.46234566 95.95350769 73.46234566 95.95350769 71.53471375 95.69909668 C68.15560511 95.25327713 64.77619659 94.80977653 61.39668441 94.36702752 C59.27646825 94.08916281 57.15631821 93.81079874 55.03618813 93.53227806 C47.61723818 92.55771026 40.19802315 91.58518874 32.77856445 90.61450195 C25.89202024 89.71347494 19.00612114 88.80762756 12.12048835 87.89966422 C6.16885072 87.11509235 0.21676396 86.33399248 -5.73567885 85.55555314 C-9.2743704 85.09270914 -12.81286399 84.62846486 -16.35090065 84.16063881 C-20.28137847 83.64105032 -24.21277827 83.12867509 -28.14428711 82.61694336 C-29.30329529 82.46269394 -30.46230347 82.30844452 -31.65643311 82.14952087 C-37.00246182 81.4594505 -42.16412127 80.91688518 -47.55517578 81.10400391 Z M-45.55517578 138.10400391 C-46.27234532 144.24152555 -46.98426208 150.37962572 -47.69140625 156.51831055 C-47.93249029 158.60473918 -48.17498638 160.69100517 -48.41894531 162.77709961 C-48.77019366 165.78278193 -49.11629034 168.78902053 -49.46142578 171.79541016 C-49.57079468 172.72172745 -49.68016357 173.64804474 -49.79284668 174.60243225 C-50.34598565 179.46713365 -50.77476855 184.20700319 -50.55517578 189.10400391 C-48.73738834 190.92179135 -45.90169073 190.74083427 -43.44335938 191.09742737 C-42.79800924 191.1922035 -42.15265911 191.28697963 -41.48775291 191.38462776 C-39.31026806 191.70336117 -37.13196044 192.0160758 -34.95361328 192.32885742 C-33.39840579 192.55524568 -31.84325151 192.78199981 -30.28814697 193.00909424 C-26.05327941 193.62643232 -21.81767401 194.23856694 -17.58191681 194.84976697 C-13.15900804 195.48882159 -8.73676909 196.13247789 -4.31445312 196.77561951 C3.11337313 197.85519455 10.54163684 198.93171401 17.97021484 200.00610352 C28.45994673 201.52323239 38.94886074 203.04595681 49.43762589 204.56975281 C57.56486369 205.75025241 65.69233166 206.92916599 73.81982422 208.10791016 C74.69489876 208.2348467 75.5699733 208.36178324 76.47156525 208.49256635 C81.4937694 209.22099835 86.51608555 209.948649 91.53858185 210.67506409 C93.06367721 210.89574119 94.58873779 211.11665873 96.1137619 211.33782768 C98.18674761 211.63840992 100.25985849 211.93811273 102.33300781 212.23756409 C103.49593353 212.40587518 104.65885925 212.57418627 105.85702515 212.74759769 C107.64530537 213.00778753 107.64530537 213.00778753 109.44482422 213.10400391 C109.44482422 194.95400391 109.44482422 176.80400391 109.44482422 158.10400391 C89.82631683 155.49357189 70.2075269 152.88529493 50.58820724 150.28097534 C41.47886357 149.07170664 32.36965162 147.86146148 23.26074219 146.64892578 C15.32247106 145.59222253 7.38396011 144.53734297 -0.55484557 143.48466301 C-4.75930053 142.92709021 -8.96362878 142.36859791 -13.1676712 141.80792236 C-17.12352698 141.28037573 -21.0796985 140.75526562 -25.03612709 140.23203278 C-26.48909518 140.03944075 -27.94194502 139.84595431 -29.39466667 139.65151215 C-31.37666216 139.38636383 -33.35912697 139.12473078 -35.34161377 138.86328125 C-36.45145252 138.71579437 -37.56129128 138.5683075 -38.70476151 138.41635132 C-41.73996279 138.03138549 -41.73996279 138.03138549 -45.55517578 138.10400391 Z " fill="#444444" transform="translate(80.55517578125,9.89599609375)"/>
</svg>
