<svg width="56" height="57" viewBox="0 0 56 57" fill="none" xmlns="http://www.w3.org/2000/svg">
<path fill-rule="evenodd" clip-rule="evenodd" d="M42.0157 5.91565C42.3763 5.68533 42.8393 5.69598 43.189 5.94265L49.9498 10.7112C50.2318 10.9101 50.3996 11.2347 50.3996 11.5811V50.1139C50.4002 50.1347 50.4002 50.1556 50.3996 50.1764V50.1874C50.3996 50.7743 49.9266 51.25 49.343 51.25C49.0268 51.25 48.743 51.1103 48.5494 50.889L42.2304 46.6527L35.7036 51.0283C35.3534 51.2631 34.898 51.2665 34.5444 51.0369L27.7917 46.6528L21.4912 51.0191C21.1497 51.2558 20.7022 51.2697 20.3468 51.0547L13.6756 47.0183L7.41587 50.9265C7.22373 51.1261 6.95451 51.2501 6.6565 51.25C6.07293 51.2499 5.59997 50.774 5.6001 50.1872L5.60869 11.5809C5.60877 11.2223 5.78868 10.888 6.08714 10.6917L12.7362 6.32057C13.0689 6.10187 13.4954 6.08939 13.8402 6.28828L20.8544 10.3349L27.5451 5.92394C27.9019 5.68872 28.3644 5.69235 28.7175 5.93314L35.1361 10.3102L42.0157 5.91565ZM7.7138 48.2391L13.1096 44.8703C13.4464 44.66 13.872 44.657 14.2117 44.8626L20.8528 48.8807L27.173 44.5007C27.5244 44.2572 27.9871 44.2502 28.3457 44.483L35.1082 48.8734L41.6443 44.4916C41.9992 44.2536 42.4616 44.2536 42.8165 44.4916L48.2864 48.1586V12.1337L42.5532 8.08993L35.6837 12.478C35.3282 12.7051 34.8726 12.6982 34.5241 12.4605L28.1145 8.08964L21.4705 12.4697C21.1377 12.6891 20.7106 12.7019 20.3654 12.5028L13.3504 8.45573L7.72183 12.156L7.7138 48.2391Z" fill="#444444"/>
<path fill-rule="evenodd" clip-rule="evenodd" d="M42.5823 7.15032C42.7768 7.15032 42.9345 7.30889 42.9345 7.5045V45.0483C42.9345 45.2439 42.7768 45.4024 42.5823 45.4024C42.3878 45.4024 42.2301 45.2439 42.2301 45.0483V7.5045C42.2301 7.30889 42.3878 7.15032 42.5823 7.15032ZM35.5381 11.4006C35.7326 11.4006 35.8903 11.5591 35.8903 11.7547L35.8903 37.2562C35.8903 37.4518 35.7326 37.6103 35.5381 37.6103C35.3435 37.6103 35.1858 37.4518 35.1858 37.2562L35.1858 11.7547C35.1858 11.5591 35.3435 11.4006 35.5381 11.4006ZM28.1416 8.21288C28.1416 8.01726 27.9839 7.85869 27.7894 7.85869C27.5949 7.85869 27.4372 8.01726 27.4372 8.21288L27.4372 45.7566C27.4372 45.9522 27.5949 46.1108 27.7894 46.1108C27.9839 46.1108 28.1416 45.9522 28.1416 45.7566L28.1416 8.21288ZM13.701 7.85869C13.8955 7.85869 14.0532 8.01726 14.0532 8.21288L14.0532 45.7566C14.0532 45.9522 13.8955 46.1108 13.701 46.1108C13.5064 46.1108 13.3487 45.9522 13.3487 45.7566L13.3487 8.21288C13.3487 8.01726 13.5064 7.85869 13.701 7.85869ZM21.0974 24.5054C21.0974 24.3098 20.9397 24.1513 20.7452 24.1513C20.5507 24.1513 20.393 24.3098 20.393 24.5054L20.393 50.0069C20.393 50.2025 20.5507 50.3611 20.7452 50.3611C20.9397 50.3611 21.0974 50.2025 21.0974 50.0069L21.0974 24.5054Z" fill="#444444"/>
</svg>
