<svg width="56" height="57" viewBox="0 0 56 57" fill="none" xmlns="http://www.w3.org/2000/svg">
<path d="M48.0943 22.1547C47.7881 22.4079 47.4598 22.6299 47.1145 22.8185L46.5784 21.6062C46.819 21.4683 47.0485 21.3095 47.2642 21.1312C47.9335 20.5778 48.4459 19.8556 48.7495 19.0377C49.053 18.2198 49.1369 17.3354 48.9926 16.4742C48.8482 15.6131 48.4808 14.8058 47.9276 14.1342C47.3745 13.4627 46.6552 12.9508 45.8428 12.6506C45.0304 12.3504 44.1538 12.2724 43.3019 12.4247C43.0625 12.4675 42.8274 12.5281 42.5984 12.6055L42.0624 11.3931C42.39 11.2747 42.7282 11.1838 43.0735 11.1221C44.153 10.9292 45.2638 11.0279 46.2932 11.4084C47.3226 11.7888 48.2341 12.4374 48.935 13.2884C49.636 14.1393 50.1016 15.1623 50.2844 16.2535C50.4673 17.3448 50.3611 18.4655 49.9764 19.5019C49.5918 20.5382 48.9424 21.4535 48.0943 22.1547Z" fill="#444444"/>
<path d="M46.1743 8.52605C46.2759 8.04238 45.9699 7.56275 45.4835 7.50552C44.997 7.44828 44.59 7.84402 44.5787 8.33831L44.5486 9.65324C44.5406 10.0018 44.8147 10.2878 45.1576 10.3281C45.5006 10.3685 45.8325 10.1538 45.9041 9.81273L46.1743 8.52605Z" fill="#444444"/>
<path d="M48.9144 9.55652C48.7814 9.48096 48.6141 9.53433 48.5435 9.671L47.813 11.0845C47.759 11.189 47.7993 11.3177 47.9011 11.3755C48.0029 11.4334 48.1328 11.4013 48.1933 11.3004L49.0102 9.93601C49.0892 9.80409 49.0475 9.63209 48.9144 9.55652Z" fill="#444444"/>
<path d="M51.7646 10.9739C52.0748 11.3566 51.9643 11.9161 51.5582 12.1923L50.4778 12.9273C50.1914 13.1221 49.805 13.0434 49.5863 12.7737C49.3677 12.5039 49.3677 12.1059 49.6135 11.8611L50.5408 10.9372C50.8894 10.59 51.4545 10.5913 51.7646 10.9739Z" fill="#444444"/>
<path d="M53.0172 14.7063C52.9726 14.5588 52.8152 14.4809 52.6706 14.5305L51.1755 15.0436C51.0649 15.0816 51.0061 15.2028 51.0402 15.3156C51.0743 15.4284 51.1901 15.4958 51.3029 15.4649L52.827 15.0475C52.9743 15.0072 53.0618 14.8537 53.0172 14.7063Z" fill="#444444"/>
<path d="M52.9187 18.509C53.4018 18.59 53.8629 18.2602 53.898 17.7671C53.9331 17.2739 53.5235 16.8809 53.0339 16.8914L51.7314 16.9192C51.3862 16.9266 51.1153 17.2156 51.0905 17.5633C51.0658 17.911 51.2929 18.2362 51.6336 18.2934L52.9187 18.509Z" fill="#444444"/>
<path d="M52.6156 20.9685C52.6787 20.8281 52.6115 20.6646 52.4705 20.6054L51.0125 19.993C50.9046 19.9477 50.7811 19.9995 50.7329 20.1069C50.6847 20.2143 50.7275 20.3422 50.8324 20.3942L52.2495 21.0977C52.3865 21.1658 52.5526 21.1089 52.6156 20.9685Z" fill="#444444"/>
<path d="M49.8445 23.8542C50.1537 24.2376 50.7155 24.2982 51.065 23.9518C51.4144 23.6054 51.3648 23.0372 50.9907 22.718L49.9957 21.869C49.732 21.644 49.3394 21.6798 49.093 21.9241C48.8466 22.1683 48.8039 22.5639 49.0219 22.8342L49.8445 23.8542Z" fill="#444444"/>
<path d="M42.4641 8.68165C42.316 8.71908 42.2309 8.87387 42.2726 9.02216L42.7039 10.5558C42.7358 10.6693 42.8527 10.7348 42.966 10.7062C43.0793 10.6776 43.1519 10.5642 43.1271 10.4489L42.792 8.89091C42.7596 8.74027 42.6123 8.64423 42.4641 8.68165Z" fill="#444444"/>
<path fill-rule="evenodd" clip-rule="evenodd" d="M13.5649 11.4684C13.1883 11.4684 12.8449 11.6856 12.6806 12.0277L2.19855 33.8545C2.0509 34.162 2.07034 34.5245 2.25003 34.8141C2.42971 35.1036 2.74434 35.2795 3.08279 35.2795H24.3745V47.5157L7.99634 47.5157C7.45361 47.5157 7.01365 47.9599 7.01365 48.5079C7.01365 49.0558 7.45361 49.5 7.99634 49.5H44.6836C45.2263 49.5 45.6663 49.0558 45.6663 48.5079C45.6663 47.9599 45.2263 47.5157 44.6836 47.5157H28.9601V35.2795H49.9246C50.2565 35.2795 50.566 35.1103 50.7474 34.8297C50.9289 34.5491 50.9577 34.195 50.8242 33.8882L41.3249 12.0614C41.168 11.7011 40.815 11.4684 40.4252 11.4684H13.5649ZM25.6848 47.5157V35.2795H27.6498V47.5157H25.6848ZM4.65136 33.2952L8.463 25.3583H16.2937L13.6732 33.2952H4.65136ZM16.7305 24.0354L9.09828 24.0354L11.6394 18.744H18.4775L16.7305 24.0354ZM18.9143 17.4212H12.2747L14.1805 13.4527H20.2245L18.9143 17.4212ZM19.6048 17.4212L20.9151 13.4527H26.3394V17.4212H19.6048ZM26.9945 17.4212V13.4527H32.6594L33.9311 17.4212H26.9945ZM34.6197 17.4212L33.348 13.4527H39.7836L41.5107 17.4212H34.6197ZM42.0631 18.744V18.6903L44.3894 24.0354L36.7393 24.0354L35.0436 18.744H42.0631ZM37.1632 25.3583H44.9651L48.4194 33.2952H39.7066L37.1632 25.3583ZM36.4746 25.3583L39.018 33.2952H26.9945V25.3583L36.4746 25.3583ZM26.3394 25.3583V33.2952H14.3638L16.9843 25.3583H26.3394ZM36.0507 24.0354L34.355 18.744H26.9945V24.0354H36.0507ZM26.3394 24.0354V18.744H19.1681L17.421 24.0354H26.3394Z" fill="#444444"/>
</svg>
