<svg width="56" height="57" viewBox="0 0 56 57" fill="none" xmlns="http://www.w3.org/2000/svg">
<path d="M37.4499 26.0449C37.4499 26.6248 36.9798 27.0949 36.3999 27.0949H34.2999C33.72 27.0949 33.2499 26.6248 33.2499 26.0449C33.2499 25.465 33.72 24.9949 34.2999 24.9949H36.3999C36.9798 24.9949 37.4499 25.465 37.4499 26.0449Z" fill="#444444"/>
<path fill-rule="evenodd" clip-rule="evenodd" d="M9.87687 16.2775C9.70482 12.5202 11.474 10.3697 13.5576 9.62219C15.6236 8.88096 18.1334 9.45814 19.7779 11.4456L17.8915 13.3333C17.4622 13.7629 17.4622 14.4593 17.8915 14.8889C18.3208 15.3185 19.0168 15.3185 19.4461 14.8889L23.8429 10.4889C24.2722 10.0593 24.2722 9.36282 23.8429 8.93324C23.4137 8.50366 22.7177 8.50366 22.2884 8.93324L20.8179 10.4048C18.78 8.02812 15.6747 7.30456 13.063 8.24155C10.2957 9.23434 8.22097 12.0278 8.412 16.3274C8.41145 17.8228 8.41089 19.6054 8.41042 21.4949H7.6999C7.12 21.4949 6.6499 21.965 6.6499 22.5449C6.6499 23.1248 7.12 23.5949 7.6999 23.5949H8.3999V38.3069L8.40032 38.319C8.46237 40.1183 9.07051 42.7999 10.7132 45.0512C12.3798 47.3353 15.093 49.1449 19.2499 49.1449H41.9775C42.9622 49.2059 44.3477 49.0108 45.5115 48.1843C46.7236 47.3236 47.5999 45.8446 47.5999 43.5449V23.5949H48.2999C48.8798 23.5949 49.3499 23.1248 49.3499 22.5449C49.3499 21.965 48.8798 21.4949 48.2999 21.4949H9.87605C9.87652 19.5986 9.87707 17.81 9.87763 16.3113L9.87764 16.2944L9.87687 16.2775ZM9.7999 38.2825V23.5949H23.4499V36.1949C23.4499 38.6081 24.2739 40.2541 25.3706 41.3103C26.4473 42.3473 27.7428 42.7733 28.6462 42.8428L28.673 42.8449H38.1499C39.3631 42.8449 40.1571 42.3174 40.5849 41.576C40.9669 40.9142 41.0132 40.161 40.9499 39.6487V23.5949H46.1999V43.5449C46.1999 45.4452 45.5012 46.4745 44.7009 47.0429C43.8616 47.6389 42.8104 47.7973 42.0465 47.7464L42.0232 47.7449H19.2499C15.5668 47.7449 13.2633 46.1711 11.8441 44.226C10.4045 42.2531 9.85683 39.8666 9.7999 38.2825ZM39.5499 23.5949H24.8499V36.1949C24.8499 38.2616 25.5426 39.5323 26.3417 40.3019C27.1497 41.0801 28.1139 41.3913 28.7285 41.4449H38.1499C38.8967 41.4449 39.2111 41.1557 39.3724 40.8762C39.5662 40.5403 39.6004 40.0982 39.5569 39.7939L39.5499 39.7446V23.5949Z" fill="#444444"/>
<path d="M25.406 12.3049C25.6923 12.5914 25.6923 13.0559 25.406 13.3424C25.1197 13.6289 24.6555 13.6289 24.3693 13.3424C24.083 13.0559 24.1101 12.0456 24.1101 12.0456C24.1101 12.0456 25.1197 12.0184 25.406 12.3049Z" fill="#444444"/>
<path d="M23.8519 14.898C24.1382 14.6115 24.1382 14.147 23.8519 13.8605C23.5656 13.574 22.556 13.6012 22.556 13.6012C22.556 13.6012 22.5289 14.6115 22.8152 14.898C23.1015 15.1845 23.5656 15.1845 23.8519 14.898Z" fill="#444444"/>
<path d="M22.2965 16.4537C22.5828 16.1672 22.5828 15.7027 22.2965 15.4162C22.0102 15.1297 21.0006 15.1568 21.0006 15.1568C21.0006 15.1568 20.9735 16.1672 21.2598 16.4537C21.5461 16.7402 22.0102 16.7402 22.2965 16.4537Z" fill="#444444"/>
<path d="M26.4422 15.4166C26.7285 15.1301 26.7285 14.6656 26.4422 14.3791C26.156 14.0926 25.1463 14.1197 25.1463 14.1197C25.1463 14.1197 25.1192 15.1301 25.4055 15.4166C25.6918 15.7031 26.156 15.7031 26.4422 15.4166Z" fill="#444444"/>
<path d="M27.997 12.8234C28.2833 13.1099 28.2833 13.5744 27.997 13.8609C27.7107 14.1474 27.2465 14.1474 26.9603 13.8609C26.674 13.5744 26.7011 12.5641 26.7011 12.5641C26.7011 12.5641 27.7107 12.5369 27.997 12.8234Z" fill="#444444"/>
<path d="M24.8882 16.9723C25.1745 16.6858 25.1745 16.2213 24.8882 15.9348C24.6019 15.6483 23.5923 15.6754 23.5923 15.6754C23.5923 15.6754 23.5652 16.6858 23.8515 16.9723C24.1377 17.2588 24.6019 17.2588 24.8882 16.9723Z" fill="#444444"/>
<path d="M23.3334 17.4904C23.6197 17.7769 23.6197 18.2414 23.3334 18.5279C23.0472 18.8144 22.583 18.8144 22.2967 18.5279C22.0104 18.2414 22.0375 17.231 22.0375 17.231C22.0375 17.231 23.0472 17.2039 23.3334 17.4904Z" fill="#444444"/>
</svg>
