<svg width="56" height="57" viewBox="0 0 56 57" fill="none" xmlns="http://www.w3.org/2000/svg">
<path fill-rule="evenodd" clip-rule="evenodd" d="M10.1499 5.75C9.3767 5.75 8.7499 6.3768 8.7499 7.15V49.15H4.1999C3.62 49.15 3.1499 49.6201 3.1499 50.2C3.1499 50.7799 3.62 51.25 4.1999 51.25H51.7999C52.3798 51.25 52.8499 50.7799 52.8499 50.2C52.8499 49.6201 52.3798 49.15 51.7999 49.15H46.5499V7.15C46.5499 6.3768 45.9231 5.75 45.1499 5.75H10.1499ZM19.2499 7.85H10.8499V20.45H19.2499V7.85ZM19.9499 7.85V20.45H26.9499V7.85H19.9499ZM26.9499 21.15H19.9499V35.15H26.9499V21.15ZM29.0499 35.15V21.15H36.7499V35.15H29.0499ZM26.9499 35.85H19.9499V49.15H26.9499V35.85ZM19.2499 49.15V35.85H10.8499V49.15H19.2499ZM10.8499 35.15H19.2499V21.15H10.8499V35.15ZM29.0499 35.85H36.7499V49.15H29.0499V35.85ZM37.4499 49.15H44.4499V35.85H37.4499V49.15ZM44.4499 35.15V21.15H37.4499V35.15H44.4499ZM44.4499 20.45V7.85H37.4499V20.45H44.4499ZM36.7499 7.85V20.45H29.0499V7.85H36.7499Z" fill="#444444"/>
</svg>
